<svg width="648" height="256" viewBox="0 0 648 256" fill="none" xmlns="http://www.w3.org/2000/svg">
<path d="M192.699 129.207C208.287 129.207 220.691 121.085 220.691 105.717C220.691 89.1416 206.64 85.7387 194.675 82.7749C185.564 80.5795 177.661 78.7134 177.661 71.5784C177.661 65.3216 183.918 61.8089 191.602 61.8089C199.615 61.8089 205.981 65.9802 205.981 73.664H218.495C218.495 59.1745 208.616 50.0636 191.931 50.0636C175.575 50.0636 165.037 58.2963 165.037 72.1273C165.037 87.9341 178.539 91.2272 190.284 94.0812C199.505 96.2766 207.738 98.1427 207.738 105.827C207.738 112.852 200.822 117.243 192.589 117.243C183.588 117.243 176.563 112.413 176.563 103.851H163.72C163.72 119.548 175.465 129.207 192.699 129.207ZM272.77 128H287.699L265.416 97.2645L285.503 68.7244H271.124L255.097 91.6663H247.633V47.5389H235.449V128H247.633V102.753H254.988L272.77 128ZM338.891 68.7244L321.218 110.108L302.338 68.7244H289.165L314.961 123.719L313.644 126.573C309.253 136.013 306.838 138.318 299.045 138.318H293.885V149.295H299.923C311.997 149.295 317.925 144.026 324.621 129.098L351.844 68.7244H338.891ZM375.31 116.255V51.1613H362.796V128H407.253V116.255H375.31ZM418.079 59.6135H430.592V46.99H418.079V59.6135ZM418.298 128H430.482V68.7244H418.298V128ZM479.062 67.4072C470.39 67.4072 463.035 71.0296 458.644 77.0669L456.229 68.7244H447.777V128H459.962V96.2766C459.962 85.8485 466.548 78.3841 475.878 78.3841C484.77 78.3841 489.49 84.0922 489.49 94.8496V128H501.674V92.3249C501.674 77.7255 493.002 67.4072 479.062 67.4072ZM556.735 128H571.663L549.38 97.2645L569.468 68.7244H555.088L539.062 91.6663H531.597V47.5389H519.413V128H531.597V102.753H538.952L556.735 128ZM203.347 222.427C221.788 222.427 236.388 210.791 240.449 192.679H227.606C224.093 203.547 215.092 210.243 203.347 210.243C187.979 210.243 176.673 198.717 176.673 182.69C176.673 166.664 187.979 155.028 203.347 155.028C214.653 155.028 223.654 161.285 227.386 171.494H240.12C236.058 154.15 221.459 142.844 203.347 142.844C180.625 142.844 163.83 159.639 163.83 182.69C163.83 205.632 180.625 222.427 203.347 222.427ZM281.109 161.395C272.986 161.395 267.169 164.249 262.887 169.847L260.912 161.724H252.679V221H264.863V189.496C264.863 178.739 269.803 172.921 279.902 172.921H286.378V161.395H281.109ZM350.583 191.582C350.583 174.348 338.508 160.297 320.287 160.297C302.943 160.297 289.881 173.689 289.881 191.362C289.881 209.145 302.943 222.537 320.287 222.537C333.569 222.537 344.436 214.853 349.156 202.339H336.313C333.13 207.828 327.422 211.121 320.287 211.121C310.627 211.121 303.711 205.193 302.175 195.533H350.254C350.473 194.216 350.583 192.899 350.583 191.582ZM320.287 171.384C329.398 171.384 336.094 176.653 338.289 185.654H302.504C304.48 176.873 311.176 171.384 320.287 171.384ZM413.136 161.724L411.709 169.189C406.331 163.591 398.757 160.297 389.975 160.297C372.302 160.297 359.13 173.58 359.13 191.362C359.13 209.145 372.302 222.537 389.975 222.537C398.647 222.537 406.111 219.244 411.49 213.865L412.697 221H422.467V161.724H413.136ZM390.963 210.791C379.766 210.791 371.534 202.449 371.534 191.362C371.534 180.275 379.766 171.933 390.963 171.933C402.159 171.933 410.282 180.166 410.282 191.362C410.282 202.559 402.159 210.791 390.963 210.791ZM466.297 210.023C459.162 210.023 455.21 206.071 455.21 198.936V172.262H472.773V161.724H455.1V147.893H453.014L432.378 169.847V172.262H443.025V199.924C443.025 212.987 451.039 221 463.991 221H473.102V210.023H466.297ZM484.755 152.614H497.269V139.99H484.755V152.614ZM484.975 221H497.159V161.724H484.975V221ZM554.959 161.724L537.615 205.742L519.832 161.724H506.989L532.017 221H543.104L567.472 161.724H554.959ZM632.189 191.582C632.189 174.348 620.115 160.297 601.893 160.297C584.549 160.297 571.487 173.689 571.487 191.362C571.487 209.145 584.549 222.537 601.893 222.537C615.175 222.537 626.042 214.853 630.762 202.339H617.919C614.736 207.828 609.028 211.121 601.893 211.121C592.233 211.121 585.318 205.193 583.781 195.533H631.86C632.08 194.216 632.189 192.899 632.189 191.582ZM601.893 171.384C611.004 171.384 617.7 176.653 619.895 185.654H584.11C586.086 176.873 592.782 171.384 601.893 171.384Z" fill="white"/>
<path d="M104.803 88.4724L124.622 68.6525C131.103 62.0924 134.726 53.234 134.698 44.0119C134.671 34.7898 130.995 25.9533 124.474 19.4322C117.953 12.9111 109.117 9.23526 99.8943 9.20747C90.672 9.17961 81.8135 12.8021 75.2536 19.2837L45.6502 48.887C45.1286 48.8716 44.6062 48.8611 44.0821 48.8611C39.6735 48.8583 35.2828 49.4242 31.019 50.545L68.7633 12.8007C77.0407 4.58222 88.2381 -0.0207569 99.9024 7.33993e-05C111.567 0.0209037 122.747 4.66384 130.995 12.9118C139.243 21.1599 143.886 32.3406 143.906 44.005C143.927 55.6693 139.324 66.8664 131.105 75.1436L111.286 94.9626L104.803 88.4724Z" fill="white"/>
<path d="M104.803 88.4724L124.622 68.6525C131.103 62.0924 134.726 53.234 134.698 44.0119C134.671 34.7898 130.995 25.9533 124.474 19.4322C117.953 12.9111 109.117 9.23526 99.8943 9.20747C90.672 9.17961 81.8135 12.8021 75.2536 19.2837L45.6502 48.887C45.1286 48.8716 44.6062 48.8611 44.0821 48.8611C39.6735 48.8583 35.2828 49.4242 31.019 50.545L68.7633 12.8007C77.0407 4.58222 88.2381 -0.0207569 99.9024 7.33993e-05C111.567 0.0209037 122.747 4.66384 130.995 12.9118C139.243 21.1599 143.886 32.3406 143.906 44.005C143.927 55.6693 139.324 66.8664 131.105 75.1436L111.286 94.9626L104.803 88.4724Z" stroke="white"/>
<path d="M144 155.678C144.01 149.89 142.876 144.156 140.663 138.807C138.451 133.458 135.203 128.598 131.107 124.508L75.252 68.6526C66.9809 60.4046 55.7743 55.7765 44.0935 55.7848C32.4127 55.7931 21.2127 60.437 12.9532 68.6968C4.69383 76.9565 0.0503117 88.1565 0.0424884 99.8378C0.0346653 111.518 4.66319 122.725 12.9115 130.995L68.7666 186.851C74.9289 193.018 82.7824 197.22 91.334 198.922C99.8847 200.626 108.749 199.753 116.804 196.415C124.859 193.078 131.742 187.426 136.584 180.174C141.425 172.922 144.006 164.398 144 155.678ZM124.622 130.996C131.09 137.559 134.701 146.412 134.668 155.627C134.635 164.841 130.959 173.669 124.443 180.185C117.927 186.701 109.1 190.376 99.8856 190.41C90.6706 190.443 81.8161 186.832 75.2536 180.364L19.3985 124.509C16.1183 121.275 13.5102 117.425 11.7245 113.18C9.93888 108.935 9.01099 104.378 8.9943 99.7722C8.97754 95.166 9.87238 90.6026 11.6272 86.3446C13.382 82.0867 15.9621 78.2174 19.2188 74.9607C22.4755 71.704 26.3444 69.1238 30.6028 67.3691C34.8611 65.6143 39.4245 64.7194 44.0301 64.7362C48.6358 64.7529 53.1926 65.6808 57.4381 67.4664C61.6835 69.2521 65.5336 71.8602 68.7666 75.1404L124.622 130.996Z" fill="white"/>
<path d="M144 155.678C144.01 149.89 142.876 144.156 140.663 138.807C138.451 133.458 135.203 128.598 131.107 124.508L75.252 68.6526C66.9809 60.4046 55.7743 55.7765 44.0935 55.7848C32.4127 55.7931 21.2127 60.437 12.9532 68.6968C4.69383 76.9565 0.0503117 88.1565 0.0424884 99.8378C0.0346653 111.518 4.66319 122.725 12.9115 130.995L68.7666 186.851C74.9289 193.018 82.7824 197.22 91.334 198.922C99.8847 200.626 108.749 199.753 116.804 196.415C124.859 193.078 131.742 187.426 136.584 180.174C141.425 172.922 144.006 164.398 144 155.678ZM124.622 130.996C131.09 137.559 134.701 146.412 134.668 155.627C134.635 164.841 130.959 173.669 124.443 180.185C117.927 186.701 109.1 190.376 99.8856 190.41C90.6706 190.443 81.8161 186.832 75.2536 180.364L19.3985 124.509C16.1183 121.275 13.5102 117.425 11.7245 113.18C9.93888 108.935 9.01099 104.378 8.9943 99.7722C8.97754 95.166 9.87238 90.6026 11.6272 86.3446C13.382 82.0867 15.9621 78.2174 19.2188 74.9607C22.4755 71.704 26.3444 69.1238 30.6028 67.3691C34.8611 65.6143 39.4245 64.7194 44.0301 64.7362C48.6358 64.7529 53.1926 65.6808 57.4381 67.4664C61.6835 69.2521 65.5336 71.8602 68.7666 75.1404L124.622 130.996Z" stroke="white"/>
<path d="M12.9114 180.363L32.7304 160.544L39.2174 167.031L19.3984 186.85C12.9302 193.413 9.31901 202.266 9.35238 211.481C9.38583 220.696 13.0611 229.523 19.577 236.039C26.0927 242.555 34.9203 246.23 44.135 246.264C53.3496 246.297 62.2037 242.686 68.7665 236.218L98.3926 206.592C103.332 206.741 108.267 206.176 113.044 204.914L75.2535 242.705C66.9865 250.972 55.7739 255.616 44.0825 255.616C32.3911 255.616 21.1786 250.972 12.9114 242.705C4.6444 234.437 -2.73989e-06 223.225 -2.22883e-06 211.533C-1.7178e-06 199.842 4.6444 188.63 12.9114 180.363Z" fill="white"/>
<path d="M12.9114 180.363L32.7304 160.544L39.2174 167.031L19.3984 186.85C12.9302 193.413 9.31901 202.266 9.35238 211.481C9.38583 220.696 13.0611 229.523 19.577 236.039C26.0927 242.555 34.9203 246.23 44.135 246.264C53.3496 246.297 62.2037 242.686 68.7665 236.218L98.3926 206.592C103.332 206.741 108.267 206.176 113.044 204.914L75.2535 242.705C66.9865 250.972 55.7739 255.616 44.0825 255.616C32.3911 255.616 21.1786 250.972 12.9114 242.705C4.6444 234.437 -2.73989e-06 223.225 -2.22883e-06 211.533C-1.7178e-06 199.842 4.6444 188.63 12.9114 180.363Z" stroke="white"/>
</svg>
